<svg width="54" height="50" viewBox="0 0 54 50" fill="none" xmlns="http://www.w3.org/2000/svg">
<rect x="2" width="50" height="50" fill="#F5E558"/>
<mask id="path-2-outside-1_434_13" maskUnits="userSpaceOnUse" x="9" y="11" width="36" height="31" fill="black">
<rect fill="white" x="9" y="11" width="36" height="31"/>
<path d="M11.9849 13.872C11.4729 13.872 11.2169 13.664 11.2169 13.248C11.2169 12.656 11.5049 12.36 12.0809 12.36H22.4969C23.0089 12.36 23.2649 12.576 23.2649 13.008C23.2649 13.232 23.2249 13.408 23.1449 13.536L11.9849 31.488H22.0649C22.5769 31.488 22.8329 31.704 22.8329 32.136C22.8329 32.712 22.5449 33 21.9689 33H10.3049C9.79291 33 9.53691 32.784 9.53691 32.352C9.53691 32.24 9.57691 32.064 9.65691 31.824C15.5129 22.384 18.8409 17.04 19.6409 15.792C20.4569 14.544 20.8729 13.904 20.8889 13.872H11.9849ZM31.8575 22.776H29.4575L28.0175 35.184C27.6975 38.144 26.7935 40.008 25.3055 40.776C24.7135 41.096 23.9935 41.256 23.1455 41.256C22.2975 41.256 21.4975 41.072 20.7455 40.704C19.9775 40.352 19.5935 40.032 19.5935 39.744C19.5935 39.536 19.7055 39.296 19.9295 39.024C20.1375 38.752 20.3455 38.616 20.5535 38.616C20.5695 38.616 20.6815 38.696 20.8895 38.856C21.0975 39.032 21.4095 39.2 21.8255 39.36C22.2415 39.536 22.6815 39.624 23.1455 39.624C23.5935 39.624 23.9535 39.576 24.2255 39.48C24.5135 39.384 24.7775 39.184 25.0175 38.88C25.2575 38.576 25.4495 38.224 25.5935 37.824C25.7535 37.44 25.9135 36.872 26.0735 36.12C26.2815 35.08 26.5455 33.208 26.8655 30.504L27.7535 22.776H25.8335C25.6255 22.776 25.4655 22.704 25.3535 22.56C25.2415 22.416 25.1855 22.248 25.1855 22.056C25.1855 21.848 25.2655 21.648 25.4255 21.456C25.5855 21.264 25.7535 21.168 25.9295 21.168H27.9455L28.2575 18.432C28.5295 15.92 29.0655 14.168 29.8655 13.176C30.6015 12.28 31.6255 11.832 32.9375 11.832C33.6575 11.832 34.3455 11.92 35.0015 12.096C35.6575 12.272 35.9855 12.464 35.9855 12.672C35.9855 12.912 35.8975 13.184 35.7215 13.488C35.5455 13.792 35.3535 13.944 35.1455 13.944C35.1295 13.944 35.0335 13.904 34.8575 13.824C34.3295 13.6 33.7615 13.488 33.1535 13.488C32.5615 13.488 32.0895 13.6 31.7375 13.824C31.4015 14.048 31.1375 14.304 30.9455 14.592C30.7695 14.88 30.6095 15.296 30.4655 15.84C30.2895 16.48 30.1295 17.4 29.9855 18.6L29.6735 21.168H32.0255C32.3935 21.168 32.5775 21.408 32.5775 21.888C32.5775 22.096 32.5055 22.296 32.3615 22.488C32.2175 22.68 32.0495 22.776 31.8575 22.776ZM41.6993 22.176C42.5953 21.28 43.1713 20.832 43.4273 20.832C43.6833 20.832 43.9073 20.936 44.0993 21.144C44.2913 21.352 44.3873 21.544 44.3873 21.72C44.3873 21.896 44.2513 22.104 43.9793 22.344C42.3953 23.736 40.8833 25.296 39.4433 27.024L40.7393 29.712C41.0113 30.256 41.2833 30.712 41.5553 31.08C41.8433 31.432 42.0753 31.656 42.2513 31.752C42.6513 31.992 42.8513 32.208 42.8513 32.4C42.8513 32.592 42.7233 32.824 42.4673 33.096C42.2273 33.384 42.0273 33.528 41.8673 33.528C41.4993 33.528 41.0833 33.32 40.6193 32.904C40.1713 32.488 39.7713 31.904 39.4193 31.152L38.1713 28.536C37.1153 29.912 36.1233 31.056 35.1953 31.968C34.2833 32.88 33.6993 33.336 33.4433 33.336C33.2033 33.336 32.9873 33.232 32.7953 33.024C32.6033 32.832 32.5073 32.648 32.5073 32.472C32.5073 32.296 32.6513 32.088 32.9393 31.848C34.5073 30.456 36.0273 28.856 37.4993 27.048L36.3953 24.672C36.1393 24.112 35.8673 23.648 35.5793 23.28C35.3073 22.912 35.0833 22.68 34.9073 22.584C34.5073 22.344 34.3073 22.128 34.3073 21.936C34.3073 21.744 34.4273 21.512 34.6673 21.24C34.9233 20.968 35.1313 20.832 35.2913 20.832C35.6593 20.832 36.0753 21.04 36.5393 21.456C37.0033 21.872 37.3953 22.448 37.7153 23.184L38.7713 25.536C39.8433 24.176 40.8193 23.056 41.6993 22.176Z"/>
</mask>
<path d="M11.9849 13.872C11.4729 13.872 11.2169 13.664 11.2169 13.248C11.2169 12.656 11.5049 12.36 12.0809 12.36H22.4969C23.0089 12.36 23.2649 12.576 23.2649 13.008C23.2649 13.232 23.2249 13.408 23.1449 13.536L11.9849 31.488H22.0649C22.5769 31.488 22.8329 31.704 22.8329 32.136C22.8329 32.712 22.5449 33 21.9689 33H10.3049C9.79291 33 9.53691 32.784 9.53691 32.352C9.53691 32.24 9.57691 32.064 9.65691 31.824C15.5129 22.384 18.8409 17.04 19.6409 15.792C20.4569 14.544 20.8729 13.904 20.8889 13.872H11.9849ZM31.8575 22.776H29.4575L28.0175 35.184C27.6975 38.144 26.7935 40.008 25.3055 40.776C24.7135 41.096 23.9935 41.256 23.1455 41.256C22.2975 41.256 21.4975 41.072 20.7455 40.704C19.9775 40.352 19.5935 40.032 19.5935 39.744C19.5935 39.536 19.7055 39.296 19.9295 39.024C20.1375 38.752 20.3455 38.616 20.5535 38.616C20.5695 38.616 20.6815 38.696 20.8895 38.856C21.0975 39.032 21.4095 39.2 21.8255 39.36C22.2415 39.536 22.6815 39.624 23.1455 39.624C23.5935 39.624 23.9535 39.576 24.2255 39.48C24.5135 39.384 24.7775 39.184 25.0175 38.88C25.2575 38.576 25.4495 38.224 25.5935 37.824C25.7535 37.44 25.9135 36.872 26.0735 36.12C26.2815 35.08 26.5455 33.208 26.8655 30.504L27.7535 22.776H25.8335C25.6255 22.776 25.4655 22.704 25.3535 22.56C25.2415 22.416 25.1855 22.248 25.1855 22.056C25.1855 21.848 25.2655 21.648 25.4255 21.456C25.5855 21.264 25.7535 21.168 25.9295 21.168H27.9455L28.2575 18.432C28.5295 15.92 29.0655 14.168 29.8655 13.176C30.6015 12.28 31.6255 11.832 32.9375 11.832C33.6575 11.832 34.3455 11.92 35.0015 12.096C35.6575 12.272 35.9855 12.464 35.9855 12.672C35.9855 12.912 35.8975 13.184 35.7215 13.488C35.5455 13.792 35.3535 13.944 35.1455 13.944C35.1295 13.944 35.0335 13.904 34.8575 13.824C34.3295 13.6 33.7615 13.488 33.1535 13.488C32.5615 13.488 32.0895 13.6 31.7375 13.824C31.4015 14.048 31.1375 14.304 30.9455 14.592C30.7695 14.88 30.6095 15.296 30.4655 15.84C30.2895 16.48 30.1295 17.4 29.9855 18.6L29.6735 21.168H32.0255C32.3935 21.168 32.5775 21.408 32.5775 21.888C32.5775 22.096 32.5055 22.296 32.3615 22.488C32.2175 22.68 32.0495 22.776 31.8575 22.776ZM41.6993 22.176C42.5953 21.28 43.1713 20.832 43.4273 20.832C43.6833 20.832 43.9073 20.936 44.0993 21.144C44.2913 21.352 44.3873 21.544 44.3873 21.72C44.3873 21.896 44.2513 22.104 43.9793 22.344C42.3953 23.736 40.8833 25.296 39.4433 27.024L40.7393 29.712C41.0113 30.256 41.2833 30.712 41.5553 31.08C41.8433 31.432 42.0753 31.656 42.2513 31.752C42.6513 31.992 42.8513 32.208 42.8513 32.4C42.8513 32.592 42.7233 32.824 42.4673 33.096C42.2273 33.384 42.0273 33.528 41.8673 33.528C41.4993 33.528 41.0833 33.32 40.6193 32.904C40.1713 32.488 39.7713 31.904 39.4193 31.152L38.1713 28.536C37.1153 29.912 36.1233 31.056 35.1953 31.968C34.2833 32.88 33.6993 33.336 33.4433 33.336C33.2033 33.336 32.9873 33.232 32.7953 33.024C32.6033 32.832 32.5073 32.648 32.5073 32.472C32.5073 32.296 32.6513 32.088 32.9393 31.848C34.5073 30.456 36.0273 28.856 37.4993 27.048L36.3953 24.672C36.1393 24.112 35.8673 23.648 35.5793 23.28C35.3073 22.912 35.0833 22.68 34.9073 22.584C34.5073 22.344 34.3073 22.128 34.3073 21.936C34.3073 21.744 34.4273 21.512 34.6673 21.24C34.9233 20.968 35.1313 20.832 35.2913 20.832C35.6593 20.832 36.0753 21.04 36.5393 21.456C37.0033 21.872 37.3953 22.448 37.7153 23.184L38.7713 25.536C39.8433 24.176 40.8193 23.056 41.6993 22.176Z" fill="black"/>
<path d="M23.1449 13.536L22.7209 13.271L22.7203 13.272L23.1449 13.536ZM11.9849 31.488L11.5603 31.224L11.0853 31.988H11.9849V31.488ZM9.65691 31.824L9.23202 31.5604L9.20111 31.6103L9.18256 31.6659L9.65691 31.824ZM19.6409 15.792L19.2224 15.5184L19.22 15.5222L19.6409 15.792ZM20.8889 13.872L21.3361 14.0956L21.6979 13.372H20.8889V13.872ZM11.9849 13.372C11.7837 13.372 11.7256 13.329 11.7242 13.3279C11.7241 13.3278 11.7244 13.3281 11.7251 13.3288C11.7258 13.3295 11.7265 13.3303 11.7271 13.3312C11.7286 13.3333 11.7285 13.3338 11.7275 13.3312C11.7252 13.3257 11.7169 13.3016 11.7169 13.248H10.7169C10.7169 13.5637 10.8191 13.881 11.0936 14.1041C11.3482 14.3109 11.6741 14.372 11.9849 14.372V13.372ZM11.7169 13.248C11.7169 13.0257 11.7711 12.9514 11.7913 12.9307C11.809 12.9125 11.8735 12.86 12.0809 12.86V11.86C11.7123 11.86 11.3448 11.9555 11.0745 12.2333C10.8067 12.5086 10.7169 12.8783 10.7169 13.248H11.7169ZM12.0809 12.86H22.4969V11.86H12.0809V12.86ZM22.4969 12.86C22.6946 12.86 22.7497 12.9035 22.7505 12.9041C22.7507 12.9043 22.7501 12.9038 22.7494 12.9029C22.7489 12.9021 22.75 12.9033 22.7519 12.9082C22.756 12.9185 22.7649 12.9483 22.7649 13.008H23.7649C23.7649 12.6906 23.6668 12.3689 23.3953 12.1399C23.1401 11.9245 22.8112 11.86 22.4969 11.86V12.86ZM22.7649 13.008C22.7649 13.1808 22.7327 13.2521 22.7209 13.271L23.5689 13.801C23.7171 13.5639 23.7649 13.2832 23.7649 13.008H22.7649ZM22.7203 13.272L11.5603 31.224L12.4095 31.752L23.5695 13.8L22.7203 13.272ZM11.9849 31.988H22.0649V30.988H11.9849V31.988ZM22.0649 31.988C22.2626 31.988 22.3177 32.0315 22.3185 32.0321C22.3187 32.0323 22.3181 32.0318 22.3174 32.0309C22.3169 32.0301 22.318 32.0313 22.3199 32.0362C22.324 32.0465 22.3329 32.0763 22.3329 32.136H23.3329C23.3329 31.8186 23.2348 31.4969 22.9633 31.2679C22.7081 31.0525 22.3792 30.988 22.0649 30.988V31.988ZM22.3329 32.136C22.3329 32.3469 22.2805 32.4133 22.2634 32.4304C22.2462 32.4476 22.1798 32.5 21.9689 32.5V33.5C22.334 33.5 22.6996 33.4084 22.9705 33.1376C23.2413 32.8667 23.3329 32.5011 23.3329 32.136H22.3329ZM21.9689 32.5H10.3049V33.5H21.9689V32.5ZM10.3049 32.5C10.1072 32.5 10.0521 32.4565 10.0513 32.4559C10.0511 32.4557 10.0518 32.4562 10.0524 32.4571C10.0529 32.4579 10.0519 32.4567 10.0499 32.4518C10.0459 32.4415 10.0369 32.4117 10.0369 32.352H9.03691C9.03691 32.6694 9.13498 32.9911 9.40647 33.2201C9.66169 33.4355 9.99061 33.5 10.3049 33.5V32.5ZM10.0369 32.352C10.0369 32.3526 10.0369 32.3443 10.0397 32.3248C10.0423 32.3058 10.0469 32.2801 10.0545 32.2468C10.0697 32.1797 10.0945 32.0922 10.1312 31.9821L9.18256 31.6659C9.10151 31.9091 9.03691 32.1522 9.03691 32.352H10.0369ZM10.0818 32.0876C15.9392 22.6452 19.2644 17.3058 20.0618 16.0618L19.22 15.5222C18.4174 16.7742 15.0866 22.1228 9.23202 31.5604L10.0818 32.0876ZM20.0594 16.0656C20.4675 15.4415 20.7758 14.9691 20.9841 14.6485C21.0883 14.4883 21.1678 14.3655 21.2225 14.2804C21.2498 14.238 21.2714 14.204 21.2871 14.1791C21.2933 14.1694 21.32 14.1279 21.3361 14.0956L20.4417 13.6484C20.4539 13.6241 20.4641 13.6096 20.4412 13.6458C20.4279 13.667 20.4081 13.698 20.3813 13.7396C20.328 13.8225 20.2496 13.9437 20.1457 14.1035C19.9381 14.4229 19.6304 14.8945 19.2224 15.5184L20.0594 16.0656ZM20.8889 13.372H11.9849V14.372H20.8889V13.372ZM29.4575 22.776V22.276H29.0121L28.9608 22.7184L29.4575 22.776ZM28.0175 35.184L27.5208 35.1264L27.5204 35.1303L28.0175 35.184ZM25.3055 40.776L25.0761 40.3316L25.0677 40.3361L25.3055 40.776ZM20.7455 40.704L20.9653 40.2547L20.9538 40.2495L20.7455 40.704ZM19.9295 39.024L20.3154 39.3419L20.3212 39.3349L20.3266 39.3277L19.9295 39.024ZM20.8895 38.856L21.2124 38.4743L21.2036 38.4668L21.1943 38.4597L20.8895 38.856ZM21.8255 39.36L22.0203 38.8995L22.0127 38.8963L22.005 38.8933L21.8255 39.36ZM24.2255 39.48L24.0673 39.0056L24.0591 39.0085L24.2255 39.48ZM25.5935 37.824L25.1319 37.6317L25.1272 37.6431L25.123 37.6546L25.5935 37.824ZM26.0735 36.12L26.5626 36.2241L26.5638 36.2181L26.0735 36.12ZM26.8655 30.504L27.362 30.5628L27.3622 30.5611L26.8655 30.504ZM27.7535 22.776L28.2502 22.8331L28.3142 22.276H27.7535V22.776ZM25.3535 22.56L24.9588 22.867L24.9588 22.867L25.3535 22.56ZM25.4255 21.456L25.0414 21.1359L25.0414 21.1359L25.4255 21.456ZM27.9455 21.168V21.668H28.3917L28.4422 21.2246L27.9455 21.168ZM28.2575 18.432L28.7543 18.4887L28.7546 18.4858L28.2575 18.432ZM29.8655 13.176L29.4791 12.8586L29.4763 12.8621L29.8655 13.176ZM35.0015 12.096L35.131 11.6131L35.131 11.6131L35.0015 12.096ZM34.8575 13.824L35.0644 13.3687L35.0527 13.3637L34.8575 13.824ZM31.7375 13.824L31.469 13.4021L31.4601 13.408L31.7375 13.824ZM30.9455 14.592L30.5294 14.3146L30.524 14.3229L30.5188 14.3313L30.9455 14.592ZM30.4655 15.84L30.9476 15.9726L30.9488 15.9679L30.4655 15.84ZM29.9855 18.6L30.4818 18.6603L30.4819 18.6596L29.9855 18.6ZM29.6735 21.168L29.1771 21.1077L29.109 21.668H29.6735V21.168ZM31.8575 22.276H29.4575V23.276H31.8575V22.276ZM28.9608 22.7184L27.5208 35.1264L28.5141 35.2416L29.9541 22.8336L28.9608 22.7184ZM27.5204 35.1303C27.2046 38.051 26.3288 39.6852 25.0761 40.3317L25.5348 41.2203C27.2582 40.3308 28.1903 38.237 28.5146 35.2377L27.5204 35.1303ZM25.0677 40.3361C24.5653 40.6077 23.9316 40.756 23.1455 40.756V41.756C24.0553 41.756 24.8616 41.5843 25.5432 41.2159L25.0677 40.3361ZM23.1455 40.756C22.3726 40.756 21.6479 40.589 20.9652 40.2549L20.5257 41.1531C21.347 41.555 22.2223 41.756 23.1455 41.756V40.756ZM20.9538 40.2495C20.5864 40.0811 20.3442 39.9348 20.2016 39.8159C20.0434 39.6841 20.0935 39.6599 20.0935 39.744H19.0935C19.0935 40.1161 19.3355 40.3959 19.5614 40.5841C19.8027 40.7853 20.1365 40.9749 20.5371 41.1585L20.9538 40.2495ZM20.0935 39.744C20.0935 39.7088 20.1184 39.5811 20.3154 39.3419L19.5435 38.7061C19.2925 39.0109 19.0935 39.3632 19.0935 39.744H20.0935ZM20.3266 39.3277C20.4083 39.2209 20.4726 39.1642 20.5151 39.1365C20.5538 39.1112 20.5642 39.116 20.5535 39.116V38.116C20.1115 38.116 19.7742 38.4039 19.5323 38.7203L20.3266 39.3277ZM20.5535 39.116C20.505 39.116 20.4666 39.1088 20.4444 39.1038C20.4207 39.0984 20.4018 39.0922 20.3894 39.0878C20.3654 39.0792 20.3479 39.0707 20.3404 39.067C20.3249 39.0592 20.3161 39.0535 20.3185 39.055C20.3214 39.0568 20.3336 39.0648 20.3588 39.0829C20.4075 39.1176 20.4819 39.1733 20.5846 39.2523L21.1943 38.4597C21.089 38.3787 21.0034 38.3144 20.9401 38.2691C20.9093 38.2472 20.8775 38.2252 20.8485 38.207C20.8348 38.1985 20.8131 38.1853 20.7876 38.1725C20.7751 38.1663 20.7533 38.1559 20.7258 38.1461C20.7081 38.1398 20.6417 38.116 20.5535 38.116V39.116ZM20.5665 39.2377C20.8357 39.4655 21.2066 39.6577 21.646 39.8267L22.005 38.8933C21.6124 38.7423 21.3592 38.5985 21.2124 38.4743L20.5665 39.2377ZM21.6306 39.8205C22.11 40.0233 22.6164 40.124 23.1455 40.124V39.124C22.7465 39.124 22.373 39.0487 22.0203 38.8995L21.6306 39.8205ZM23.1455 40.124C23.6224 40.124 24.0453 40.0738 24.3919 39.9515L24.0591 39.0085C23.8616 39.0782 23.5646 39.124 23.1455 39.124V40.124ZM24.3836 39.9543C24.7865 39.82 25.1261 39.5494 25.4099 39.1898L24.625 38.5702C24.4289 38.8186 24.2404 38.948 24.0674 39.0057L24.3836 39.9543ZM25.4099 39.1898C25.6864 38.8396 25.9034 38.4392 26.0639 37.9934L25.123 37.6546C24.9955 38.0088 24.8285 38.3124 24.625 38.5702L25.4099 39.1898ZM26.055 38.0163C26.2329 37.5893 26.4005 36.9855 26.5625 36.2241L25.5844 36.0159C25.4264 36.7585 25.274 37.2907 25.1319 37.6317L26.055 38.0163ZM26.5638 36.2181C26.7761 35.1561 27.0421 33.2658 27.362 30.5628L26.3689 30.4452C26.0488 33.1502 25.7868 35.0039 25.5832 36.0219L26.5638 36.2181ZM27.3622 30.5611L28.2502 22.8331L27.2567 22.7189L26.3687 30.4469L27.3622 30.5611ZM27.7535 22.276H25.8335V23.276H27.7535V22.276ZM25.8335 22.276C25.7873 22.276 25.7673 22.2681 25.7627 22.266C25.76 22.2649 25.7586 22.2639 25.7574 22.2629C25.7561 22.2619 25.7529 22.2592 25.7481 22.253L24.9588 22.867C25.1796 23.1509 25.4957 23.276 25.8335 23.276V22.276ZM25.7481 22.253C25.7082 22.2016 25.6855 22.1431 25.6855 22.056H24.6855C24.6855 22.3529 24.7748 22.6304 24.9588 22.867L25.7481 22.253ZM25.6855 22.056C25.6855 21.9874 25.7087 21.8971 25.8096 21.7761L25.0414 21.1359C24.8222 21.3989 24.6855 21.7086 24.6855 22.056H25.6855ZM25.8096 21.7761C25.862 21.7132 25.9 21.6853 25.9195 21.6741C25.9357 21.6649 25.9369 21.668 25.9295 21.668V20.668C25.5506 20.668 25.2549 20.8797 25.0414 21.1359L25.8096 21.7761ZM25.9295 21.668H27.9455V20.668H25.9295V21.668ZM28.4422 21.2246L28.7542 18.4886L27.7607 18.3753L27.4487 21.1113L28.4422 21.2246ZM28.7546 18.4858C29.0246 15.9917 29.5499 14.3638 30.2547 13.4899L29.4763 12.8621C28.5811 13.9722 28.0343 15.8483 27.7604 18.3782L28.7546 18.4858ZM30.2518 13.4934C30.8796 12.7291 31.7529 12.332 32.9375 12.332V11.332C31.498 11.332 30.3233 11.8309 29.4791 12.8586L30.2518 13.4934ZM32.9375 12.332C33.6163 12.332 34.2606 12.4149 34.8719 12.5789L35.131 11.6131C34.4303 11.4251 33.6986 11.332 32.9375 11.332V12.332ZM34.8719 12.5789C35.1849 12.6629 35.3803 12.7411 35.4869 12.8035C35.5395 12.8343 35.5471 12.848 35.5373 12.836C35.5234 12.819 35.4855 12.7616 35.4855 12.672H36.4855C36.4855 12.2818 36.1836 12.0526 35.9921 11.9405C35.7706 11.8109 35.474 11.7051 35.131 11.6131L34.8719 12.5789ZM35.4855 12.672C35.4855 12.7925 35.4398 12.9766 35.2888 13.2375L36.1542 13.7385C36.3552 13.3914 36.4855 13.0315 36.4855 12.672H35.4855ZM35.2888 13.2375C35.2197 13.3568 35.1653 13.4141 35.1351 13.438C35.1111 13.457 35.1176 13.444 35.1455 13.444V14.444C35.63 14.444 35.9523 14.0872 36.1542 13.7385L35.2888 13.2375ZM35.1455 13.444C35.1698 13.444 35.1897 13.4458 35.2028 13.4474C35.2165 13.449 35.2278 13.451 35.236 13.4525C35.2517 13.4556 35.2636 13.4587 35.2695 13.4604C35.2761 13.4622 35.2808 13.4637 35.283 13.4644C35.2843 13.4648 35.2852 13.4651 35.2858 13.4653C35.2863 13.4655 35.2866 13.4656 35.2866 13.4656C35.2867 13.4656 35.2865 13.4656 35.286 13.4654C35.2856 13.4652 35.285 13.465 35.2841 13.4647C35.2825 13.4641 35.2802 13.4632 35.2773 13.462C35.2714 13.4597 35.2636 13.4566 35.2538 13.4525C35.2132 13.4355 35.1509 13.4081 35.0644 13.3688L34.6506 14.2792C34.7401 14.3199 34.8138 14.3525 34.8692 14.3755C34.8962 14.3868 34.9243 14.3981 34.9503 14.4074C34.9629 14.4119 34.9811 14.4181 35.0019 14.4239C35.0076 14.4255 35.0689 14.444 35.1455 14.444V13.444ZM35.0527 13.3637C34.4593 13.112 33.8245 12.988 33.1535 12.988V13.988C33.6985 13.988 34.1996 14.088 34.6622 14.2843L35.0527 13.3637ZM33.1535 12.988C32.5044 12.988 31.9282 13.11 31.469 13.4022L32.0059 14.2458C32.2507 14.09 32.6186 13.988 33.1535 13.988V12.988ZM31.4601 13.408C31.0782 13.6626 30.7636 13.9634 30.5294 14.3146L31.3615 14.8693C31.5113 14.6446 31.7247 14.4334 32.0148 14.24L31.4601 13.408ZM30.5188 14.3313C30.3064 14.6789 30.1314 15.148 29.9821 15.7121L30.9488 15.9679C31.0875 15.444 31.2326 15.0811 31.3721 14.8527L30.5188 14.3313ZM29.9834 15.7074C29.7975 16.3833 29.634 17.3323 29.489 18.5404L30.4819 18.6596C30.6249 17.4677 30.7814 16.5767 30.9476 15.9726L29.9834 15.7074ZM29.4891 18.5397L29.1771 21.1077L30.1698 21.2283L30.4818 18.6603L29.4891 18.5397ZM29.6735 21.668H32.0255V20.668H29.6735V21.668ZM32.0255 21.668C32.0638 21.668 32.0739 21.6743 32.0676 21.6715C32.0584 21.6675 32.0481 21.6592 32.0427 21.6522C32.0393 21.6479 32.0485 21.6577 32.0585 21.6968C32.0687 21.7366 32.0775 21.7983 32.0775 21.888H33.0775C33.0775 21.5982 33.0244 21.2891 32.8363 21.0438C32.6289 20.7733 32.3274 20.668 32.0255 20.668V21.668ZM32.0775 21.888C32.0775 21.9717 32.051 22.0687 31.9615 22.188L32.7615 22.788C32.96 22.5233 33.0775 22.2203 33.0775 21.888H32.0775ZM31.9615 22.188C31.9209 22.2421 31.8917 22.2628 31.8794 22.2699C31.8703 22.2751 31.8657 22.276 31.8575 22.276V23.276C32.2459 23.276 32.5492 23.071 32.7615 22.788L31.9615 22.188ZM44.0993 21.144L43.7319 21.4831L43.7319 21.4831L44.0993 21.144ZM43.9793 22.344L44.3094 22.7196L44.3102 22.7189L43.9793 22.344ZM39.4433 27.024L39.0592 26.7039L38.8532 26.9512L38.993 27.2411L39.4433 27.024ZM40.7393 29.712L40.2889 29.9292L40.2921 29.9356L40.7393 29.712ZM41.5553 31.08L41.1533 31.3772L41.1606 31.3871L41.1684 31.3966L41.5553 31.08ZM42.2513 31.752L42.5086 31.3233L42.4998 31.318L42.4908 31.3131L42.2513 31.752ZM42.4673 33.096L42.1032 32.7533L42.0929 32.7643L42.0832 32.7759L42.4673 33.096ZM40.6193 32.904L40.2791 33.2705L40.2856 33.2763L40.6193 32.904ZM39.4193 31.152L39.8722 30.94L39.8706 30.9367L39.4193 31.152ZM38.1713 28.536L38.6226 28.3207L38.2714 27.5844L37.7747 28.2316L38.1713 28.536ZM35.1953 31.968L34.8449 31.6114L34.8418 31.6144L35.1953 31.968ZM32.7953 33.024L33.1627 32.6849L33.156 32.6775L33.1489 32.6704L32.7953 33.024ZM32.9393 31.848L33.2594 32.2321L33.2654 32.2271L33.2713 32.2219L32.9393 31.848ZM37.4993 27.048L37.8871 27.3637L38.0846 27.1211L37.9528 26.8373L37.4993 27.048ZM36.3953 24.672L35.9406 24.8799L35.9419 24.8827L36.3953 24.672ZM35.5793 23.28L35.1771 23.5773L35.1856 23.5882L35.5793 23.28ZM34.9073 22.584L34.6501 23.0127L34.6589 23.018L34.6679 23.0229L34.9073 22.584ZM34.6673 21.24L34.3032 20.8973L34.2977 20.9032L34.2924 20.9092L34.6673 21.24ZM36.5393 21.456L36.8731 21.0837L36.8731 21.0837L36.5393 21.456ZM37.7153 23.184L37.2568 23.3834L37.2592 23.3888L37.7153 23.184ZM38.7713 25.536L38.3152 25.7408L38.6532 26.4936L39.164 25.8455L38.7713 25.536ZM42.0529 22.5296C42.4952 22.0872 42.8463 21.768 43.1103 21.5627C43.2428 21.4596 43.3424 21.3939 43.4124 21.3562C43.4955 21.3115 43.4898 21.332 43.4273 21.332V20.332C43.2369 20.332 43.0632 20.4085 42.9383 20.4758C42.8003 20.55 42.6519 20.6524 42.4964 20.7733C42.1844 21.016 41.7995 21.3688 41.3458 21.8224L42.0529 22.5296ZM43.4273 21.332C43.5282 21.332 43.6235 21.3656 43.7319 21.4831L44.4667 20.8049C44.1912 20.5064 43.8385 20.332 43.4273 20.332V21.332ZM43.7319 21.4831C43.8879 21.6521 43.8873 21.7271 43.8873 21.72H44.8873C44.8873 21.3609 44.6948 21.0519 44.4667 20.8049L43.7319 21.4831ZM43.8873 21.72C43.8873 21.6785 43.9027 21.6796 43.8669 21.7344C43.8318 21.7879 43.7648 21.8665 43.6485 21.9691L44.3102 22.7189C44.4659 22.5815 44.6029 22.4361 44.7038 22.2816C44.804 22.1284 44.8873 21.9375 44.8873 21.72H43.8873ZM43.6493 21.9684C42.0446 23.3786 40.5147 24.9573 39.0592 26.7039L39.8275 27.3441C41.252 25.6346 42.7461 24.0934 44.3094 22.7196L43.6493 21.9684ZM38.993 27.2411L40.289 29.9291L41.1897 29.4949L39.8937 26.8069L38.993 27.2411ZM40.2921 29.9356C40.5731 30.4975 40.8596 30.9799 41.1533 31.3772L41.9574 30.7828C41.7071 30.4441 41.4496 30.0145 41.1866 29.4884L40.2921 29.9356ZM41.1684 31.3966C41.4584 31.7511 41.743 32.0442 42.0119 32.1909L42.4908 31.3131C42.4077 31.2678 42.2283 31.1129 41.9423 30.7634L41.1684 31.3966ZM41.9941 32.1807C42.1743 32.2888 42.2797 32.3746 42.3345 32.4337C42.3931 32.497 42.3513 32.4826 42.3513 32.4H43.3513C43.3513 32.1254 43.2096 31.907 43.0682 31.7543C42.923 31.5974 42.7284 31.4552 42.5086 31.3233L41.9941 32.1807ZM42.3513 32.4C42.3513 32.3855 42.3555 32.4077 42.3176 32.4765C42.2802 32.5443 42.2133 32.6364 42.1032 32.7533L42.8314 33.4387C43.1027 33.1504 43.3513 32.7955 43.3513 32.4H42.3513ZM42.0832 32.7759C41.9777 32.9025 41.8983 32.976 41.8452 33.0142C41.7872 33.056 41.7996 33.028 41.8673 33.028V34.028C42.0951 34.028 42.2874 33.928 42.4295 33.8258C42.5764 33.72 42.717 33.5775 42.8515 33.4161L42.0832 32.7759ZM41.8673 33.028C41.6835 33.028 41.3842 32.9182 40.9531 32.5317L40.2856 33.2763C40.7825 33.7218 41.3152 34.028 41.8673 34.028V33.028ZM40.9596 32.5376C40.5723 32.178 40.2061 31.6534 39.8722 30.94L38.9665 31.364C39.3366 32.1546 39.7704 32.798 40.2791 33.2704L40.9596 32.5376ZM39.8706 30.9367L38.6226 28.3207L37.7201 28.7513L38.9681 31.3673L39.8706 30.9367ZM37.7747 28.2316C36.7285 29.5948 35.7519 30.72 34.8449 31.6114L35.5458 32.3246C36.4948 31.392 37.5022 30.2292 38.568 28.8404L37.7747 28.2316ZM34.8418 31.6144C34.3913 32.0649 34.034 32.3904 33.7656 32.5999C33.6309 32.7051 33.5296 32.7723 33.4583 32.8111C33.3733 32.8572 33.3793 32.836 33.4433 32.836V33.836C33.6354 33.836 33.8104 33.7578 33.9354 33.6899C34.0741 33.6147 34.2238 33.5109 34.3811 33.3881C34.6967 33.1416 35.0873 32.7831 35.5489 32.3216L34.8418 31.6144ZM33.4433 32.836C33.368 32.836 33.2786 32.8104 33.1627 32.6849L32.4279 33.3631C32.6961 33.6536 33.0387 33.836 33.4433 33.836V32.836ZM33.1489 32.6704C33.0009 32.5225 33.0073 32.4586 33.0073 32.472H32.0073C32.0073 32.8374 32.2057 33.1415 32.4418 33.3776L33.1489 32.6704ZM33.0073 32.472C33.0073 32.5213 32.9881 32.524 33.0264 32.4686C33.0636 32.4149 33.1351 32.3357 33.2594 32.2321L32.6193 31.4639C32.4555 31.6003 32.3111 31.7451 32.2042 31.8994C32.0986 32.052 32.0073 32.2467 32.0073 32.472H33.0073ZM33.2713 32.2219C34.8615 30.8102 36.3999 29.1903 37.8871 27.3637L37.1116 26.7323C35.6547 28.5217 34.1532 30.1018 32.6074 31.4741L33.2713 32.2219ZM37.9528 26.8373L36.8488 24.4613L35.9419 24.8827L37.0459 27.2587L37.9528 26.8373ZM36.8501 24.4641C36.5826 23.879 36.2915 23.3787 35.9731 22.9718L35.1856 23.5882C35.4432 23.9173 35.6961 24.345 35.9406 24.8799L36.8501 24.4641ZM35.9814 22.9828C35.7079 22.6127 35.4282 22.2985 35.1468 22.1451L34.6679 23.0229C34.7385 23.0615 34.9068 23.2113 35.1773 23.5772L35.9814 22.9828ZM35.1646 22.1553C34.9844 22.0472 34.879 21.9614 34.8242 21.9023C34.7656 21.839 34.8073 21.8534 34.8073 21.936H33.8073C33.8073 22.2106 33.9491 22.429 34.0905 22.5817C34.2357 22.7386 34.4303 22.8808 34.6501 23.0127L35.1646 22.1553ZM34.8073 21.936C34.8073 21.9435 34.8056 21.9171 34.8415 21.8477C34.8769 21.7791 34.9397 21.687 35.0423 21.5708L34.2924 20.9092C34.0347 21.2013 33.8073 21.5524 33.8073 21.936H34.8073ZM35.0314 21.5827C35.1445 21.4626 35.2301 21.391 35.289 21.3525C35.3532 21.3105 35.3485 21.332 35.2913 21.332V20.332C35.0742 20.332 34.8855 20.4215 34.7417 20.5155C34.5926 20.613 34.4462 20.7454 34.3032 20.8973L35.0314 21.5827ZM35.2913 21.332C35.4752 21.332 35.7745 21.4418 36.2056 21.8283L36.8731 21.0837C36.3762 20.6382 35.8435 20.332 35.2913 20.332V21.332ZM36.2056 21.8283C36.603 22.1846 36.9575 22.695 37.2568 23.3834L38.1739 22.9846C37.8331 22.201 37.4037 21.5594 36.8731 21.0837L36.2056 21.8283ZM37.2592 23.3888L38.3152 25.7408L39.2275 25.3312L38.1715 22.9792L37.2592 23.3888ZM39.164 25.8455C40.2282 24.4955 41.191 23.3915 42.0529 22.5296L41.3458 21.8224C40.4477 22.7205 39.4585 23.8565 38.3787 25.2265L39.164 25.8455Z" fill="black" mask="url(#path-2-outside-1_434_13)"/>
</svg>
